<?xml version="1.0" standalone="no"?><!-- Generator: Gravit.io --><svg xmlns="http://www.w3.org/2000/svg" xmlns:xlink="http://www.w3.org/1999/xlink" style="isolation:isolate" viewBox="0 0 640 100" width="640" height="100"><path d="M 18.625 11.385 L 74.82 6.878 C 81.868 6.313 88.05 11.576 88.615 18.625 L 93.122 74.82 C 93.687 81.868 88.424 88.05 81.375 88.615 L 25.18 93.122 C 18.132 93.687 11.95 88.424 11.385 81.375 L 6.878 25.18 C 6.313 18.132 11.576 11.95 18.625 11.385 Z" style="stroke:none;fill:#FFB428;stroke-miterlimit:10;"/><path d="M 23.217 17.036 L 71.188 13.188 C 77.205 12.706 82.482 17.199 82.964 23.217 L 86.812 71.188 C 87.294 77.205 82.801 82.482 76.783 82.964 L 28.812 86.812 C 22.795 87.294 17.518 82.801 17.036 76.783 L 13.188 28.812 C 12.706 22.795 17.199 17.518 23.217 17.036 Z" style="fill:none;stroke:#E67606;stroke-width:1;stroke-linecap:square;stroke-dasharray:5,5;stroke-miterlimit:3;"/><path d=" M 47.743 50.582 L 51.124 50.311 L 51.124 50.311 Q 53.804 50.096 55.139 48.737 L 55.139 48.737 L 55.139 48.737 Q 56.475 47.378 56.27 44.826 L 56.27 44.826 L 56.27 44.826 Q 56.076 42.402 54.472 41.214 L 54.472 41.214 L 54.472 41.214 Q 52.868 40.027 49.997 40.257 L 49.997 40.257 L 49.997 40.257 Q 48.976 40.339 48.309 40.425 L 48.309 40.425 L 48.309 40.425 Q 47.642 40.51 46.95 40.694 L 46.95 40.694 L 47.743 50.582 Z  M 48.508 59.317 L 49.449 71.055 L 49.449 71.055 Q 48.763 71.303 47.279 71.615 L 47.279 71.615 L 47.279 71.615 Q 45.795 71.926 44.328 72.044 L 44.328 72.044 L 44.328 72.044 Q 42.861 72.162 41.726 72.028 L 41.726 72.028 L 41.726 72.028 Q 40.592 71.894 39.781 71.381 L 39.781 71.381 L 39.781 71.381 Q 38.969 70.869 38.504 69.879 L 38.504 69.879 L 38.504 69.879 Q 38.04 68.889 37.907 67.23 L 37.907 67.23 L 35.497 37.182 L 35.497 37.182 Q 35.389 35.843 36.064 35.05 L 36.064 35.05 L 36.064 35.05 Q 36.739 34.258 37.979 33.709 L 37.979 33.709 L 37.979 33.709 Q 40.087 32.769 42.834 32.196 L 42.834 32.196 L 42.834 32.196 Q 45.581 31.622 48.388 31.397 L 48.388 31.397 L 48.388 31.397 Q 57.191 30.691 62.15 34.082 L 62.15 34.082 L 62.15 34.082 Q 67.109 37.472 67.626 43.915 L 67.626 43.915 L 67.626 43.915 Q 67.877 47.041 67.09 49.641 L 67.09 49.641 L 67.09 49.641 Q 66.303 52.24 64.503 54.214 L 64.503 54.214 L 64.503 54.214 Q 62.703 56.188 59.816 57.415 L 59.816 57.415 L 59.816 57.415 Q 56.929 58.642 53.038 58.954 L 53.038 58.954 L 48.508 59.317 Z " fill-rule="evenodd" fill="rgb(47,47,47)"/><path d="M 114.939 8.442 L 171.158 12.633 C 178.21 13.159 183.508 19.311 182.982 26.363 L 178.791 82.582 C 178.265 89.634 172.113 94.932 165.061 94.406 L 108.842 90.215 C 101.79 89.689 96.492 83.537 97.018 76.485 L 101.209 20.266 C 101.735 13.214 107.887 7.916 114.939 8.442 Z" style="stroke:none;fill:#3AA4F0;stroke-linecap:square;stroke-miterlimit:3;"/><path d="M 118.607 14.732 L 166.598 18.31 C 172.618 18.759 177.141 24.011 176.692 30.031 L 173.114 78.022 C 172.665 84.042 167.413 88.565 161.393 88.116 L 113.402 84.538 C 107.382 84.089 102.859 78.837 103.308 72.817 L 106.886 24.826 C 107.335 18.806 112.587 14.283 118.607 14.732 Z" style="fill:none;stroke:#0979CA;stroke-width:1;stroke-linecap:square;stroke-dasharray:5,5;stroke-miterlimit:3;"/><path d="M 376.947 13.973 L 433.178 9.934 C 440.231 9.427 446.368 14.742 446.875 21.795 L 450.914 78.026 C 451.421 85.079 446.106 91.216 439.053 91.723 L 382.822 95.762 C 375.769 96.269 369.632 90.954 369.125 83.901 L 365.086 27.67 C 364.579 20.617 369.894 14.48 376.947 13.973 Z" style="stroke:none;fill:#3AA4F0;stroke-linecap:square;stroke-miterlimit:3;"/><path d="M 381.492 19.662 L 429.493 16.214 C 435.514 15.781 440.754 20.319 441.186 26.34 L 444.634 74.341 C 445.067 80.362 440.529 85.602 434.508 86.034 L 386.507 89.482 C 380.486 89.915 375.246 85.377 374.814 79.356 L 371.366 31.355 C 370.933 25.334 375.471 20.094 381.492 19.662 Z" style="fill:none;stroke:#1483D3;stroke-width:1;stroke-linecap:square;stroke-dasharray:5,5;stroke-miterlimit:3;"/><path d="M 475.086 10.108 L 531.03 17.063 C 538.048 17.935 543.037 24.341 542.164 31.358 L 535.209 87.302 C 534.337 94.32 527.931 99.309 520.914 98.436 L 464.97 91.481 C 457.952 90.609 452.963 84.203 453.836 77.186 L 460.791 21.242 C 461.663 14.224 468.069 9.235 475.086 10.108 Z" style="stroke:none;fill:#FFB428;stroke-linecap:square;stroke-miterlimit:3;"/><path d="M 478.439 16.571 L 526.197 22.508 C 532.187 23.253 536.446 28.721 535.701 34.711 L 529.764 82.469 C 529.019 88.459 523.551 92.718 517.561 91.973 L 469.803 86.036 C 463.813 85.291 459.554 79.823 460.299 73.833 L 466.236 26.075 C 466.981 20.085 472.449 15.826 478.439 16.571 Z" style="fill:none;stroke:#F29417;stroke-width:1;stroke-linecap:square;stroke-dasharray:5,5;stroke-miterlimit:3;"/><path d="M 196.858 14.314 L 252.782 7.191 C 259.796 6.298 266.217 11.268 267.11 18.282 L 274.233 74.206 C 275.126 81.22 270.156 87.641 263.142 88.534 L 207.218 95.657 C 200.204 96.55 193.783 91.58 192.89 84.566 L 185.767 28.642 C 184.874 21.628 189.844 15.207 196.858 14.314 Z" style="stroke:none;fill:#EA2D2D;stroke-linecap:square;stroke-miterlimit:3;"/><path d="M 201.708 19.745 L 249.448 13.664 C 255.436 12.902 260.917 17.144 261.679 23.132 L 267.76 70.872 C 268.522 76.86 264.28 82.341 258.292 83.103 L 210.552 89.184 C 204.564 89.946 199.083 85.704 198.321 79.716 L 192.24 31.976 C 191.478 25.988 195.72 20.507 201.708 19.745 Z" style="fill:none;stroke:#CA1B1B;stroke-width:1;stroke-linecap:square;stroke-dasharray:5,5;stroke-miterlimit:3;"/><path d=" M 227.773 52.111 L 231.138 51.682 L 231.138 51.682 Q 233.804 51.343 235.075 49.923 L 235.075 49.923 L 235.075 49.923 Q 236.346 48.503 236.022 45.963 L 236.022 45.963 L 236.022 45.963 Q 235.715 43.551 234.057 42.439 L 234.057 42.439 L 234.057 42.439 Q 232.4 41.328 229.543 41.692 L 229.543 41.692 L 229.543 41.692 Q 228.527 41.821 227.864 41.938 L 227.864 41.938 L 227.864 41.938 Q 227.202 42.054 226.52 42.27 L 226.52 42.27 L 227.773 52.111 Z  M 228.944 60.801 L 230.432 72.482 L 230.432 72.482 Q 229.758 72.762 228.29 73.142 L 228.29 73.142 L 228.29 73.142 Q 226.822 73.523 225.362 73.709 L 225.362 73.709 L 225.362 73.709 Q 223.902 73.894 222.763 73.814 L 222.763 73.814 L 222.763 73.814 Q 221.623 73.733 220.789 73.259 L 220.789 73.259 L 220.789 73.259 Q 219.954 72.784 219.444 71.817 L 219.444 71.817 L 219.444 71.817 Q 218.934 70.85 218.723 69.199 L 218.723 69.199 L 214.915 39.297 L 214.915 39.297 Q 214.745 37.963 215.382 37.14 L 215.382 37.14 L 215.382 37.14 Q 216.019 36.317 217.233 35.711 L 217.233 35.711 L 217.233 35.711 Q 219.294 34.674 222.011 33.973 L 222.011 33.973 L 222.011 33.973 Q 224.728 33.273 227.522 32.917 L 227.522 32.917 L 227.522 32.917 Q 236.283 31.801 241.395 34.956 L 241.395 34.956 L 241.395 34.956 Q 246.506 38.112 247.323 44.524 L 247.323 44.524 L 247.323 44.524 Q 247.719 47.635 247.055 50.268 L 247.055 50.268 L 247.055 50.268 Q 246.39 52.901 244.684 54.957 L 244.684 54.957 L 244.684 54.957 Q 242.978 57.013 240.151 58.373 L 240.151 58.373 L 240.151 58.373 Q 237.324 59.733 233.452 60.226 L 233.452 60.226 L 228.944 60.801 Z " fill-rule="evenodd" fill="rgb(47,47,47)"/><path d="M 294.004 10.425 L 350.301 13.384 C 357.363 13.756 362.795 19.79 362.423 26.852 L 359.464 83.149 C 359.092 90.211 353.058 95.643 345.996 95.271 L 289.699 92.312 C 282.637 91.94 277.205 85.906 277.577 78.844 L 280.536 22.547 C 280.908 15.485 286.942 10.053 294.004 10.425 Z" style="stroke:none;fill:#9FFF21;stroke-linecap:square;stroke-miterlimit:3;"/><path d="M 297.808 16.633 L 345.867 19.16 C 351.895 19.476 356.532 24.628 356.215 30.656 L 353.688 78.715 C 353.372 84.743 348.22 89.38 342.192 89.063 L 294.133 86.536 C 288.105 86.22 283.468 81.068 283.785 75.04 L 286.312 26.981 C 286.628 20.953 291.78 16.316 297.808 16.633 Z" style="fill:none;stroke:#5DA400;stroke-width:1;stroke-linecap:square;stroke-dasharray:5,5;stroke-miterlimit:3;"/><path d=" M 317.686 53.127 L 321.073 53.305 L 321.073 53.305 Q 323.758 53.446 325.261 52.275 L 325.261 52.275 L 325.261 52.275 Q 326.765 51.105 326.899 48.548 L 326.899 48.548 L 326.899 48.548 Q 327.027 46.12 325.594 44.73 L 325.594 44.73 L 325.594 44.73 Q 324.161 43.341 321.285 43.19 L 321.285 43.19 L 321.285 43.19 Q 320.262 43.136 319.589 43.133 L 319.589 43.133 L 319.589 43.133 Q 318.917 43.13 318.207 43.221 L 318.207 43.221 L 317.686 53.127 Z  M 317.29 61.886 L 316.672 73.646 L 316.672 73.646 Q 315.958 73.801 314.446 73.913 L 314.446 73.913 L 314.446 73.913 Q 312.934 74.026 311.464 73.949 L 311.464 73.949 L 311.464 73.949 Q 309.994 73.872 308.888 73.589 L 308.888 73.589 L 308.888 73.589 Q 307.781 73.307 307.044 72.691 L 307.044 72.691 L 307.044 72.691 Q 306.308 72.076 305.978 71.033 L 305.978 71.033 L 305.978 71.033 Q 305.648 69.99 305.736 68.328 L 305.736 68.328 L 307.318 38.226 L 307.318 38.226 Q 307.389 36.884 308.162 36.188 L 308.162 36.188 L 308.162 36.188 Q 308.936 35.491 310.238 35.111 L 310.238 35.111 L 310.238 35.111 Q 312.451 34.458 315.25 34.253 L 315.25 34.253 L 315.25 34.253 Q 318.048 34.048 320.86 34.195 L 320.86 34.195 L 320.86 34.195 Q 329.68 34.659 334.148 38.675 L 334.148 38.675 L 334.148 38.675 Q 338.615 42.691 338.276 49.146 L 338.276 49.146 L 338.276 49.146 Q 338.111 52.278 336.988 54.75 L 336.988 54.75 L 336.988 54.75 Q 335.864 57.223 333.819 58.942 L 333.819 58.942 L 333.819 58.942 Q 331.774 60.661 328.75 61.495 L 328.75 61.495 L 328.75 61.495 Q 325.726 62.33 321.827 62.125 L 321.827 62.125 L 317.29 61.886 Z " fill-rule="evenodd" fill="rgb(47,47,47)"/><path d=" M 120.068 49.902 L 120.068 49.902 L 120.068 49.902 Q 120.416 45.235 122.15 41.754 L 122.15 41.754 L 122.15 41.754 Q 123.883 38.273 126.607 36.04 L 126.607 36.04 L 126.607 36.04 Q 129.33 33.806 132.865 32.806 L 132.865 32.806 L 132.865 32.806 Q 136.399 31.806 140.408 32.105 L 140.408 32.105 L 140.408 32.105 Q 144.416 32.404 147.763 33.917 L 147.763 33.917 L 147.763 33.917 Q 151.11 35.43 153.502 38.045 L 153.502 38.045 L 153.502 38.045 Q 155.894 40.66 157.093 44.359 L 157.093 44.359 L 157.093 44.359 Q 158.291 48.059 157.943 52.726 L 157.943 52.726 L 157.943 52.726 Q 157.595 57.393 155.889 60.906 L 155.889 60.906 L 155.889 60.906 Q 154.183 64.419 151.459 66.652 L 151.459 66.652 L 151.459 66.652 Q 148.736 68.886 145.172 69.884 L 145.172 69.884 L 145.172 69.884 Q 141.608 70.881 137.539 70.578 L 137.539 70.578 L 137.539 70.578 Q 133.47 70.275 130.096 68.729 L 130.096 68.729 L 130.096 68.729 Q 126.721 67.184 124.391 64.544 L 124.391 64.544 L 124.391 64.544 Q 122.061 61.903 120.893 58.206 L 120.893 58.206 L 120.893 58.206 Q 119.724 54.509 120.068 49.902 Z  M 130.838 50.705 L 130.838 50.705 L 130.838 50.705 Q 130.432 56.15 132.445 59.007 L 132.445 59.007 L 132.445 59.007 Q 134.458 61.865 138.168 62.141 L 138.168 62.141 L 138.168 62.141 Q 141.938 62.423 144.352 59.895 L 144.352 59.895 L 144.352 59.895 Q 146.767 57.368 147.173 51.923 L 147.173 51.923 L 147.173 51.923 Q 147.574 46.538 145.591 43.682 L 145.591 43.682 L 145.591 43.682 Q 143.608 40.827 139.838 40.546 L 139.838 40.546 L 139.838 40.546 Q 136.129 40.269 133.686 42.765 L 133.686 42.765 L 133.686 42.765 Q 131.244 45.26 130.838 50.705 Z " fill-rule="evenodd" fill="rgb(47,47,47)"/><path d=" M 411.185 37.865 L 413.454 69.464 L 413.454 69.464 Q 412.809 69.691 411.416 69.971 L 411.416 69.971 L 411.416 69.971 Q 410.022 70.252 408.646 70.351 L 408.646 70.351 L 408.646 70.351 Q 407.269 70.45 406.207 70.315 L 406.207 70.315 L 406.207 70.315 Q 405.145 70.181 404.388 69.694 L 404.388 69.694 L 404.388 69.694 Q 403.631 69.207 403.203 68.275 L 403.203 68.275 L 403.203 68.275 Q 402.775 67.344 402.663 65.788 L 402.663 65.788 L 400.394 34.189 L 400.394 34.189 Q 401.043 34.022 402.465 33.709 L 402.465 33.709 L 402.465 33.709 Q 403.886 33.397 405.202 33.302 L 405.202 33.302 L 405.202 33.302 Q 406.579 33.203 407.641 33.338 L 407.641 33.338 L 407.641 33.338 Q 408.704 33.472 409.46 33.959 L 409.46 33.959 L 409.46 33.959 Q 410.217 34.446 410.645 35.378 L 410.645 35.378 L 410.645 35.378 Q 411.073 36.309 411.185 37.865 L 411.185 37.865 Z " fill="rgb(47,47,47)"/><path d=" M 492.676 44.734 L 483.745 43.624 L 483.745 43.624 Q 483.409 42.917 483.193 41.741 L 483.193 41.741 L 483.193 41.741 Q 482.976 40.566 483.132 39.315 L 483.132 39.315 L 483.132 39.315 Q 483.42 36.993 484.588 36.111 L 484.588 36.111 L 484.588 36.111 Q 485.756 35.228 487.423 35.435 L 487.423 35.435 L 513.383 38.663 L 513.383 38.663 Q 513.719 39.369 513.935 40.545 L 513.935 40.545 L 513.935 40.545 Q 514.152 41.721 513.996 42.971 L 513.996 42.971 L 513.996 42.971 Q 513.708 45.293 512.54 46.176 L 512.54 46.176 L 512.54 46.176 Q 511.372 47.059 509.705 46.851 L 509.705 46.851 L 503.096 46.03 L 499.676 73.538 L 499.676 73.538 Q 498.999 73.635 497.577 73.64 L 497.577 73.64 L 497.577 73.64 Q 496.156 73.644 494.786 73.474 L 494.786 73.474 L 494.786 73.474 Q 493.417 73.304 492.401 72.966 L 492.401 72.966 L 492.401 72.966 Q 491.385 72.628 490.737 72.003 L 490.737 72.003 L 490.737 72.003 Q 490.089 71.379 489.85 70.382 L 489.85 70.382 L 489.85 70.382 Q 489.611 69.385 489.804 67.836 L 489.804 67.836 L 492.676 44.734 Z " fill="rgb(47,47,47)"/><path d="M 557.021 15.338 L 613.259 11.406 C 620.313 10.912 626.441 16.239 626.934 23.293 L 630.866 79.531 C 631.36 86.585 626.033 92.713 618.979 93.206 L 562.741 97.138 C 555.687 97.632 549.559 92.305 549.066 85.251 L 545.134 29.013 C 544.64 21.959 549.967 15.831 557.021 15.338 Z" style="stroke:none;fill:#9FFF21;stroke-linecap:square;stroke-miterlimit:3;"/><path d="M 561.555 21.036 L 609.562 17.679 C 615.584 17.258 620.815 21.805 621.236 27.827 L 624.593 75.834 C 625.014 81.856 620.467 87.087 614.445 87.508 L 566.438 90.865 C 560.416 91.286 555.185 86.739 554.764 80.717 L 551.407 32.71 C 550.986 26.688 555.533 21.457 561.555 21.036 Z" style="fill:none;stroke:#5DA400;stroke-width:1;stroke-linecap:square;stroke-dasharray:5,5;stroke-miterlimit:3;"/><path d=" M 593.717 60.621 L 594.566 72.771 L 594.566 72.771 Q 593.921 72.997 592.557 73.272 L 592.557 73.272 L 592.557 73.272 Q 591.192 73.548 589.876 73.64 L 589.876 73.64 L 589.876 73.64 Q 587.122 73.833 585.681 73.001 L 585.681 73.001 L 585.681 73.001 Q 584.239 72.17 584.03 69.177 L 584.03 69.177 L 583.465 61.097 L 583.465 61.097 Q 581.814 58.987 579.89 56.415 L 579.89 56.415 L 579.89 56.415 Q 577.966 53.843 576.093 51.147 L 576.093 51.147 L 576.093 51.147 Q 574.22 48.451 572.593 45.828 L 572.593 45.828 L 572.593 45.828 Q 570.967 43.205 569.91 40.994 L 569.91 40.994 L 569.91 40.994 Q 570.612 39.862 571.896 38.87 L 571.896 38.87 L 571.896 38.87 Q 573.18 37.878 575.155 37.74 L 575.155 37.74 L 575.155 37.74 Q 577.49 37.577 579.023 38.432 L 579.023 38.432 L 579.023 38.432 Q 580.557 39.287 582.057 41.828 L 582.057 41.828 L 587.724 51.476 L 588.083 51.451 L 588.083 51.451 Q 588.792 49.537 589.313 47.967 L 589.313 47.967 L 589.313 47.967 Q 589.835 46.397 590.327 44.829 L 590.327 44.829 L 590.327 44.829 Q 590.819 43.261 591.362 41.569 L 591.362 41.569 L 591.362 41.569 Q 591.905 39.877 592.593 37.663 L 592.593 37.663 L 592.593 37.663 Q 593.632 37.049 594.928 36.658 L 594.928 36.658 L 594.928 36.658 Q 596.224 36.266 597.421 36.183 L 597.421 36.183 L 597.421 36.183 Q 599.516 36.036 601.06 37.041 L 601.06 37.041 L 601.06 37.041 Q 602.604 38.046 602.759 40.26 L 602.759 40.26 L 602.759 40.26 Q 602.809 40.979 602.581 42.017 L 602.581 42.017 L 602.581 42.017 Q 602.353 43.055 601.42 45.196 L 601.42 45.196 L 601.42 45.196 Q 600.487 47.336 598.669 51.012 L 598.669 51.012 L 598.669 51.012 Q 596.851 54.688 593.717 60.621 L 593.717 60.621 Z " fill="rgb(47,47,47)"/></svg>